<svg id="Camada_1" data-name="Camada 1" xmlns="http://www.w3.org/2000/svg" viewBox="0 0 831 116"><defs><style>.cls-1{fill:#666;}.cls-2{fill:#bb3d6e;}</style></defs><title>logo</title><path class="cls-1" d="M114.52,102.12A152.15,152.15,0,0,1,94,100.82a62.86,62.86,0,0,1-16.73-4.46,27,27,0,0,1-11.28-8.8q-4.08-5.64-4.09-14.19v-.68a3.53,3.53,0,0,1,.13-.93H91.84a4,4,0,0,0-.12.93v.8a6.85,6.85,0,0,0,2.48,5.7,14.51,14.51,0,0,0,6.94,2.67,69.31,69.31,0,0,0,10.28.68c1.57,0,3.2,0,4.9-.06a47,47,0,0,0,5-.38,23,23,0,0,0,4.33-.93,8.45,8.45,0,0,0,3.1-1.67,3.4,3.4,0,0,0,1.18-2.66q0-2.24-2.79-3.47a29,29,0,0,0-7.56-1.92q-4.77-.69-10.66-1.3c-3.92-.42-8-1-12.2-1.62a89.7,89.7,0,0,1-12.21-2.78,41.76,41.76,0,0,1-10.66-4.9,23.12,23.12,0,0,1-7.56-7.93,23.19,23.19,0,0,1-2.79-11.77,20.41,20.41,0,0,1,3.91-12.64A28.15,28.15,0,0,1,78,20.08a57.76,57.76,0,0,1,15.37-4.71,107,107,0,0,1,18.09-1.49,109.71,109.71,0,0,1,18.16,1.43,56.63,56.63,0,0,1,15,4.52A26.71,26.71,0,0,1,154.8,28a19.9,19.9,0,0,1,3.72,12.2v1.49H128.9v-.49a6.66,6.66,0,0,0-1.61-4.4,11.17,11.17,0,0,0-5.21-3.1,30.82,30.82,0,0,0-9.42-1.18,55.67,55.67,0,0,0-9.91.74,16,16,0,0,0-5.89,2q-1.92,1.31-1.92,2.79,0,2.22,2.79,3.47a29.83,29.83,0,0,0,7.56,1.92c3.18.45,6.73.89,10.66,1.3s8,.93,12.2,1.55a96,96,0,0,1,12.21,2.6A41.77,41.77,0,0,1,151,53.54a22.77,22.77,0,0,1,7.56,7.56,21.32,21.32,0,0,1,2.79,11.28q0,10.53-6.14,17.1t-16.73,9.6A86.86,86.86,0,0,1,114.52,102.12Z"/><path class="cls-1" d="M198.42,100.63V38.79H162.23V15.37h103V38.79H229v61.84Z"/><path class="cls-1" d="M322.84,102.12q-17.59,0-29.12-4.9T276.5,82.85q-5.72-9.48-5.71-23.24V15.37H301.4V58.25q0,10.65,5.64,16.6t15.8,6q10.29,0,15.93-6t5.64-16.6V15.37H375V59.61q0,13.76-5.7,23.24T352,97.22Q340.44,102.13,322.84,102.12Z"/><path class="cls-1" d="M386.92,100.63V15.37h49.57q15.86,0,27.38,5a38.66,38.66,0,0,1,17.73,14.5q6.19,9.54,6.19,23.17T481.6,81.17a38.66,38.66,0,0,1-17.73,14.5q-11.52,5-27.38,5Zm30.61-21.19h17.1a25.65,25.65,0,0,0,9-1.49,20.14,20.14,0,0,0,6.82-4.15,17.65,17.65,0,0,0,4.34-6.32,21.39,21.39,0,0,0,1.48-8.12v-3a20.93,20.93,0,0,0-1.48-8.06,17.86,17.86,0,0,0-4.34-6.26A19.53,19.53,0,0,0,443.67,38a26.63,26.63,0,0,0-9-1.43h-17.1Z"/><path class="cls-1" d="M496.1,100.63V15.37h91.08V36.56H526.83v11h52V67.67h-52V79.44h61.34v21.19Z"/><path class="cls-1" d="M596.23,100.63V15.37h26.64L665,50.94q.74.62,2.1,1.86c.91.82,1.86,1.69,2.85,2.6l2.73,2.48h1.24V15.37h28.75v85.26H676.29l-40-33.58q-2.61-2.11-5.52-4.71c-1.94-1.74-3.49-3.14-4.65-4.22H625v42.51Z"/><path class="cls-1" d="M744.44,100.63V38.79H708.26V15.37h103V38.79H775.05v61.84Z"/><rect class="cls-2" x="19.76" y="10" width="21" height="96"/></svg>